<svg width="200" height="200" xmlns="http://www.w3.org/2000/svg">
  <defs>
    <pattern id="floral" patternUnits="userSpaceOnUse" width="100" height="100">
      <path d="M50 25 C 40 10, 60 10, 50 25 M50 25 C 40 40, 60 40, 50 25 M50 25 C 35 20, 35 30, 50 25 M50 25 C 65 20, 65 30, 50 25" fill="none" stroke="rgba(216, 160, 167, 0.1)" stroke-width="1"/>
      <path d="M25 75 C 15 60, 35 60, 25 75 M25 75 C 15 90, 35 90, 25 75 M25 75 C 10 70, 10 80, 25 75 M25 75 C 40 70, 40 80, 25 75" fill="none" stroke="rgba(245, 197, 184, 0.08)" stroke-width="1"/>
      <path d="M75 75 C 65 60, 85 60, 75 75 M75 75 C 65 90, 85 90, 75 75 M75 75 C 60 70, 60 80, 75 75 M75 75 C 90 70, 90 80, 75 75" fill="none" stroke="rgba(216, 160, 167, 0.05)" stroke-width="1"/>
    </pattern>
  </defs>
  <rect width="200" height="200" fill="url(#floral)" />
</svg>
